# Blender v2.78 (sub 0) OBJ File: 'Checkpoint.blend'
# www.blender.org
mtllib SM_Checkpoint.mtl
o Cube
v 0.528565 -1.000000 1.413638
v 0.528565 -1.000000 1.703096
v 0.703763 -1.000000 1.751068
v 0.703763 -1.000000 1.365666
v 0.703763 -1.609437 2.006843
v 0.703763 -1.955921 1.766858
v 0.198090 -2.551622 3.367141
v 0.198090 -2.898106 3.127155
v 0.198090 -2.551622 5.102643
v 0.198090 -2.898106 4.862657
v 0.146694 -2.165142 4.666504
v 0.146694 -2.165142 4.948337
v 0.146694 -2.551622 4.666504
v 0.146694 -2.551622 4.948337
v 0.433936 -2.165142 4.578966
v 0.433936 -2.165142 5.035874
v 0.433936 -1.562252 4.578966
v 0.433936 -1.562252 5.035874
v 1.899389 -0.867965 4.578966
v 1.899389 -0.867965 5.035874
v 1.564519 -0.534148 4.578966
v 1.564519 -0.534148 5.035874
v 0.797442 -1.000000 0.000000
v 0.797442 -1.000000 1.000000
v 2.016165 -0.617356 0.000000
v 0.797442 -1.970227 0.000000
v 0.797442 -1.970227 0.530499
v 0.797442 -0.617356 0.000000
v 0.797442 -0.617356 0.716115
v 2.016165 -0.617357 0.231292
v 0.150823 -0.520305 1.000000
v 0.150823 -0.520305 1.413638
v 0.528565 1.000000 1.413638
v 0.528565 1.000000 1.703096
v 0.703763 1.000000 1.751068
v 0.703763 1.000000 1.365666
v 0.703763 1.609437 2.006843
v 0.703763 1.955921 1.766858
v 0.528565 0.000000 1.413638
v 0.528565 0.000000 1.703096
v 0.198090 2.551622 3.367141
v 0.198090 2.898106 3.127155
v 0.198090 2.551622 5.102643
v 0.198090 2.898106 4.862657
v 0.146694 2.165142 4.666504
v 0.146694 2.165142 4.948337
v 0.146694 2.551622 4.666504
v 0.146694 2.551622 4.948337
v 0.433936 2.165142 4.578966
v 0.433936 2.165142 5.035874
v 0.433936 1.562252 4.578966
v 0.433936 1.562252 5.035874
v 1.899389 0.867965 4.578966
v 1.899389 0.867965 5.035874
v 1.564519 0.534148 4.578966
v 1.564519 0.534148 5.035874
v 0.797442 1.000000 0.000000
v 0.797442 1.000000 1.000000
v 2.016165 0.617356 0.000000
v 0.797442 0.000000 1.000000
v 0.797442 1.970227 0.000000
v 0.797442 1.970227 0.530499
v 0.797442 0.617356 0.000000
v 0.797442 0.617356 0.716115
v 0.797442 0.000000 0.716115
v 2.016165 0.617357 0.231292
v 2.016165 0.000000 0.000000
v 2.016165 0.000000 0.231292
v 0.150823 0.520305 1.000000
v 0.493039 0.000000 1.000000
v 0.150823 0.520305 1.413638
v 0.493039 0.000000 1.413638
v -0.528565 -1.000000 1.413638
v -0.528565 -1.000000 1.703096
v -0.703763 -1.000000 1.751068
v -0.703763 -1.000000 1.365666
v -0.703763 -1.609437 2.006843
v -0.703763 -1.955921 1.766858
v 0.000000 -1.000000 1.413638
v 0.000000 -1.000000 1.703096
v 0.000000 -1.000000 1.365666
v 0.000000 -1.000000 1.751068
v 0.000000 -1.955921 1.766858
v 0.000000 -1.609437 2.006843
v -0.198090 -2.551622 3.367141
v -0.198090 -2.898106 3.127155
v 0.000000 -2.898106 3.127155
v 0.000000 -2.551622 3.367141
v -0.198090 -2.551622 5.102643
v -0.198090 -2.898106 4.862657
v 0.000000 -2.898106 4.862657
v 0.000000 -2.551622 5.102643
v -0.146694 -2.165142 4.666504
v -0.146694 -2.165142 4.948337
v 0.000000 -2.165142 4.666504
v 0.000000 -2.165142 4.948337
v -0.146694 -2.551622 4.666504
v -0.146694 -2.551622 4.948337
v 0.000000 -2.551622 4.666504
v 0.000000 -2.551622 4.948337
v 0.000000 -2.165142 4.431576
v -0.433936 -2.165142 4.578966
v -0.433936 -2.165142 5.035874
v 0.000000 -2.165142 5.183265
v 0.000000 -1.562252 4.431576
v -0.433936 -1.562252 4.578966
v -0.433936 -1.562252 5.035874
v 0.000000 -1.562252 5.183265
v -1.899389 -0.867965 4.578966
v -1.899389 -0.867965 5.035874
v -1.564519 -0.534148 4.578966
v -1.564519 -0.534148 5.035874
v -0.797442 -1.000000 0.000000
v -0.797442 -1.000000 1.000000
v -2.016165 -0.617356 0.000000
v 0.000000 -1.000000 1.000000
v -0.797442 -1.970227 0.000000
v -0.797442 -1.970227 0.530499
v 0.000000 -1.970227 0.000000
v 0.000000 -1.970227 0.530499
v -0.797442 -0.617356 0.000000
v -0.797442 -0.617356 0.716115
v -2.016165 -0.617357 0.231292
v -0.150823 -0.520305 1.000000
v 0.000000 -0.520305 1.000000
v -0.150823 -0.520305 1.413638
v 0.000000 -0.520305 1.413638
v -0.528565 1.000000 1.413638
v -0.528565 1.000000 1.703096
v -0.703763 1.000000 1.751068
v -0.703763 1.000000 1.365666
v -0.703763 1.609437 2.006843
v -0.703763 1.955921 1.766858
v -0.528565 0.000000 1.413638
v -0.528565 0.000000 1.703096
v 0.000000 1.000000 1.413638
v 0.000000 1.000000 1.703096
v 0.000000 1.000000 1.365666
v 0.000000 1.000000 1.751068
v 0.000000 1.955921 1.766858
v 0.000000 1.609437 2.006843
v 0.000000 0.000000 1.703096
v 0.000000 0.000000 1.413638
v -0.198090 2.551622 3.367141
v -0.198090 2.898106 3.127155
v 0.000000 2.898106 3.127155
v 0.000000 2.551622 3.367141
v -0.198090 2.551622 5.102643
v -0.198090 2.898106 4.862657
v 0.000000 2.898106 4.862657
v 0.000000 2.551622 5.102643
v -0.146694 2.165142 4.666504
v -0.146694 2.165142 4.948337
v 0.000000 2.165142 4.666504
v 0.000000 2.165142 4.948337
v -0.146694 2.551622 4.666504
v -0.146694 2.551622 4.948337
v 0.000000 2.551622 4.666504
v 0.000000 2.551622 4.948337
v 0.000000 2.165142 4.431576
v -0.433936 2.165142 4.578966
v -0.433936 2.165142 5.035874
v 0.000000 2.165142 5.183265
v 0.000000 1.562252 4.431576
v -0.433936 1.562252 4.578966
v -0.433936 1.562252 5.035874
v 0.000000 1.562252 5.183265
v -1.899389 0.867965 4.578966
v -1.899389 0.867965 5.035874
v -1.564519 0.534148 4.578966
v -1.564519 0.534148 5.035874
v -0.797442 1.000000 0.000000
v -0.797442 1.000000 1.000000
v -2.016165 0.617356 0.000000
v -0.797442 0.000000 1.000000
v 0.000000 1.000000 1.000000
v 0.000000 0.000000 1.000000
v -0.797442 1.970227 0.000000
v -0.797442 1.970227 0.530499
v 0.000000 1.970227 0.000000
v 0.000000 1.970227 0.530499
v -0.797442 0.617356 0.000000
v -0.797442 0.617356 0.716115
v -0.797442 0.000000 0.716115
v -2.016165 0.617357 0.231292
v -2.016165 0.000000 0.000000
v -2.016165 0.000000 0.231292
v -0.150823 0.520305 1.000000
v -0.493039 0.000000 1.000000
v 0.000000 0.520305 1.000000
v 0.000000 0.000000 1.000000
v -0.150823 0.520305 1.413638
v -0.493039 0.000000 1.413638
v 0.000000 0.520305 1.413638
vn 1.0000 0.0000 0.0000
vn 0.0000 1.0000 0.0000
vn 0.0000 -0.3870 -0.9221
vn 0.0000 -0.8221 -0.5694
vn 0.0000 0.3870 0.9221
vn 0.0000 0.0000 1.0000
vn 0.0000 0.0000 -1.0000
vn 0.0000 -1.0000 0.0000
vn 0.0000 0.8221 0.5694
vn 0.9563 -0.1664 0.2403
vn 0.0000 -0.5694 0.8221
vn 0.3216 0.0000 0.9469
vn 0.3216 0.0000 -0.9469
vn 0.7060 0.7082 0.0000
vn 0.6628 -0.7488 0.0000
vn -0.6728 0.7398 0.0000
vn -0.0000 -0.4356 0.9001
vn 0.3696 -0.0000 0.9292
vn 0.8355 -0.5495 0.0000
vn 0.0000 0.3870 -0.9221
vn 0.0000 0.8221 -0.5694
vn 0.0000 -0.3870 0.9221
vn 0.0000 -0.8221 0.5694
vn 0.9563 0.1664 0.2403
vn 0.0000 0.5694 0.8221
vn 0.7060 -0.7082 0.0000
vn 0.6628 0.7488 0.0000
vn -0.6728 -0.7398 0.0000
vn -0.0000 0.4356 0.9001
vn 0.8355 0.5495 0.0000
vn -1.0000 0.0000 0.0000
vn -0.9563 -0.1664 0.2403
vn -0.3216 0.0000 0.9469
vn -0.3216 0.0000 -0.9469
vn -0.7060 0.7082 0.0000
vn -0.6628 -0.7488 0.0000
vn 0.6728 0.7398 0.0000
vn -0.3696 -0.0000 0.9292
vn -0.8355 -0.5495 0.0000
vn -0.9563 0.1664 0.2403
vn -0.7060 -0.7082 0.0000
vn -0.6628 0.7488 0.0000
vn 0.6728 -0.7398 0.0000
vn -0.8355 0.5495 0.0000
usemtl Material
s off
f 39//1 40//1 2//1 1//1
f 1//2 2//2 3//2 4//2
f 79//2 1//2 4//2 81//2
f 81//3 4//3 6//3 83//3
f 4//1 3//1 5//1 6//1
f 83//4 6//4 8//4 87//4
f 3//5 82//5 84//5 5//5
f 2//2 80//2 82//2 3//2
f 2//6 40//6 142//6 80//6
f 39//7 1//7 79//7 143//7
f 87//8 8//8 10//8 91//8
f 5//9 84//9 88//9 7//9
f 6//10 5//10 7//10 8//10
f 10//11 9//11 92//11 91//11
f 7//2 88//2 92//2 9//2
f 8//1 7//1 9//1 10//1
f 11//8 15//8 16//8 12//8
f 99//8 13//8 14//8 100//8
f 13//1 11//1 12//1 14//1
f 95//7 11//7 13//7 99//7
f 100//6 14//6 12//6 96//6
f 16//12 18//12 108//12 104//12
f 12//8 16//8 104//8 96//8
f 95//8 101//8 15//8 11//8
f 105//2 108//2 18//2 17//2
f 101//13 105//13 17//13 15//13
f 17//7 21//7 19//7 15//7
f 19//14 21//14 22//14 20//14
f 15//15 19//15 20//15 16//15
f 16//6 20//6 22//6 18//6
f 18//16 22//16 21//16 17//16
f 60//1 24//1 29//1 65//1
f 24//6 60//6 70//6 31//6
f 23//1 24//1 27//1 26//1
f 26//8 27//8 120//8 119//8
f 24//17 116//17 120//17 27//17
f 65//18 29//18 30//18 68//18
f 24//1 23//1 28//1 29//1
f 30//1 25//1 67//1 68//1
f 29//8 28//8 25//8 30//8
f 116//6 24//6 31//6 125//6
f 125//8 31//8 32//8 127//8
f 31//19 70//19 72//19 32//19
f 39//1 33//1 34//1 40//1
f 33//8 36//8 35//8 34//8
f 136//8 138//8 36//8 33//8
f 138//20 140//20 38//20 36//20
f 36//1 38//1 37//1 35//1
f 140//21 146//21 42//21 38//21
f 35//22 37//22 141//22 139//22
f 34//8 35//8 139//8 137//8
f 34//6 137//6 142//6 40//6
f 39//7 143//7 136//7 33//7
f 146//2 150//2 44//2 42//2
f 37//23 41//23 147//23 141//23
f 38//24 42//24 41//24 37//24
f 44//25 150//25 151//25 43//25
f 41//8 43//8 151//8 147//8
f 42//1 44//1 43//1 41//1
f 45//2 46//2 50//2 49//2
f 158//2 159//2 48//2 47//2
f 47//1 48//1 46//1 45//1
f 154//7 158//7 47//7 45//7
f 159//6 155//6 46//6 48//6
f 50//12 163//12 167//12 52//12
f 46//2 155//2 163//2 50//2
f 154//2 45//2 49//2 160//2
f 164//8 51//8 52//8 167//8
f 160//13 49//13 51//13 164//13
f 51//7 49//7 53//7 55//7
f 53//26 54//26 56//26 55//26
f 49//27 50//27 54//27 53//27
f 50//6 52//6 56//6 54//6
f 52//28 51//28 55//28 56//28
f 60//1 65//1 64//1 58//1
f 58//6 69//6 70//6 60//6
f 57//1 61//1 62//1 58//1
f 61//2 180//2 181//2 62//2
f 58//29 62//29 181//29 176//29
f 65//18 68//18 66//18 64//18
f 58//1 64//1 63//1 57//1
f 66//1 68//1 67//1 59//1
f 64//2 66//2 59//2 63//2
f 176//6 190//6 69//6 58//6
f 190//2 194//2 71//2 69//2
f 69//30 71//30 72//30 70//30
f 134//31 73//31 74//31 135//31
f 73//2 76//2 75//2 74//2
f 79//2 81//2 76//2 73//2
f 81//3 83//3 78//3 76//3
f 76//31 78//31 77//31 75//31
f 83//4 87//4 86//4 78//4
f 75//5 77//5 84//5 82//5
f 74//2 75//2 82//2 80//2
f 74//6 80//6 142//6 135//6
f 134//7 143//7 79//7 73//7
f 87//8 91//8 90//8 86//8
f 77//9 85//9 88//9 84//9
f 78//32 86//32 85//32 77//32
f 90//11 91//11 92//11 89//11
f 85//2 89//2 92//2 88//2
f 86//31 90//31 89//31 85//31
f 93//8 94//8 103//8 102//8
f 99//8 100//8 98//8 97//8
f 97//31 98//31 94//31 93//31
f 95//7 99//7 97//7 93//7
f 100//6 96//6 94//6 98//6
f 103//33 104//33 108//33 107//33
f 94//8 96//8 104//8 103//8
f 95//8 93//8 102//8 101//8
f 105//2 106//2 107//2 108//2
f 101//34 102//34 106//34 105//34
f 106//7 102//7 109//7 111//7
f 109//35 110//35 112//35 111//35
f 102//36 103//36 110//36 109//36
f 103//6 107//6 112//6 110//6
f 107//37 106//37 111//37 112//37
f 175//31 184//31 122//31 114//31
f 114//6 124//6 189//6 175//6
f 113//31 117//31 118//31 114//31
f 117//8 119//8 120//8 118//8
f 114//17 118//17 120//17 116//17
f 184//38 187//38 123//38 122//38
f 114//31 122//31 121//31 113//31
f 123//31 187//31 186//31 115//31
f 122//8 123//8 115//8 121//8
f 116//6 125//6 124//6 114//6
f 125//8 127//8 126//8 124//8
f 124//39 126//39 193//39 189//39
f 134//31 135//31 129//31 128//31
f 128//8 129//8 130//8 131//8
f 136//8 128//8 131//8 138//8
f 138//20 131//20 133//20 140//20
f 131//31 130//31 132//31 133//31
f 140//21 133//21 145//21 146//21
f 130//22 139//22 141//22 132//22
f 129//8 137//8 139//8 130//8
f 129//6 135//6 142//6 137//6
f 134//7 128//7 136//7 143//7
f 146//2 145//2 149//2 150//2
f 132//23 141//23 147//23 144//23
f 133//40 132//40 144//40 145//40
f 149//25 148//25 151//25 150//25
f 144//8 147//8 151//8 148//8
f 145//31 144//31 148//31 149//31
f 152//2 161//2 162//2 153//2
f 158//2 156//2 157//2 159//2
f 156//31 152//31 153//31 157//31
f 154//7 152//7 156//7 158//7
f 159//6 157//6 153//6 155//6
f 162//33 166//33 167//33 163//33
f 153//2 162//2 163//2 155//2
f 154//2 160//2 161//2 152//2
f 164//8 167//8 166//8 165//8
f 160//34 164//34 165//34 161//34
f 165//7 170//7 168//7 161//7
f 168//41 170//41 171//41 169//41
f 161//42 168//42 169//42 162//42
f 162//6 169//6 171//6 166//6
f 166//43 171//43 170//43 165//43
f 175//31 173//31 183//31 184//31
f 173//6 175//6 189//6 188//6
f 172//31 173//31 179//31 178//31
f 178//2 179//2 181//2 180//2
f 173//29 176//29 181//29 179//29
f 184//38 183//38 185//38 187//38
f 173//31 172//31 182//31 183//31
f 185//31 174//31 186//31 187//31
f 183//2 182//2 174//2 185//2
f 176//6 173//6 188//6 190//6
f 190//2 188//2 192//2 194//2
f 188//44 189//44 193//44 192//44
l 191 177
