# Blender v2.78 (sub 0) OBJ File: 'Sword.blend'
# www.blender.org
mtllib SM_Sword.mtl
o Sword_Cube
v 0.060767 -0.484476 -0.035809
v 0.060767 -0.484476 0.035809
v 0.060767 0.565008 -0.035809
v 0.060768 0.565008 0.035809
v 0.090944 0.637642 -0.035810
v 0.090945 0.637642 0.035808
v 0.173325 0.565008 0.035808
v 0.173324 0.565008 -0.035810
v 0.060768 0.637642 0.012811
v 0.060767 0.637642 -0.012811
v 0.337196 0.703159 -0.016802
v 0.337212 0.703159 0.016787
v 0.171732 0.703159 -0.016802
v 0.458427 0.800633 -0.016811
v 0.171732 0.703159 0.016787
v 0.458442 0.800633 0.016778
v 0.292962 0.800633 -0.016811
v 0.292962 0.800633 0.016778
v 0.458427 1.445969 -0.016811
v 0.458442 1.445969 0.016778
v 0.292962 1.445969 -0.016811
v 0.292962 1.445969 0.016778
v 0.356672 1.610067 -0.016811
v 0.356687 1.610067 0.016778
v 0.292962 1.610067 -0.016811
v 0.292962 1.610067 0.016778
v 0.241608 0.634247 -0.016802
v 0.241608 0.634247 0.016787
v 0.337196 0.634247 -0.016802
v 0.337212 0.634247 0.016787
v 0.060768 0.781100 0.012811
v 0.060767 0.781100 -0.012811
v 0.017553 0.910647 0.012811
v 0.017552 0.910647 -0.012811
v 0.060766 0.565008 -0.053013
v 0.060768 0.565008 0.053013
v 0.173325 0.565008 0.053011
v 0.090945 0.637642 0.053011
v 0.060768 0.637642 0.053013
v 0.060766 0.637642 -0.053013
v 0.090943 0.637642 -0.053014
v 0.173323 0.565007 -0.053014
v -0.060767 -0.484476 -0.035809
v -0.060767 -0.484476 0.035809
v -0.060767 0.565008 -0.035809
v -0.060768 0.565008 0.035809
v 0.000000 -0.484476 -0.035809
v 0.000000 -0.484476 0.035809
v 0.000000 0.565008 -0.035809
v 0.000000 0.565008 0.035809
v -0.090944 0.637642 -0.035810
v -0.090945 0.637642 0.035808
v -0.173325 0.565008 0.035808
v -0.173324 0.565008 -0.035810
v 0.000000 0.637642 0.012811
v 0.000000 0.637642 -0.012811
v -0.060768 0.637642 0.012811
v -0.060767 0.637642 -0.012811
v -0.337196 0.703159 -0.016802
v -0.337212 0.703159 0.016787
v -0.171732 0.703159 -0.016802
v -0.458427 0.800633 -0.016811
v -0.171732 0.703159 0.016787
v -0.458442 0.800633 0.016778
v -0.292962 0.800633 -0.016811
v -0.292962 0.800633 0.016778
v -0.458427 1.445969 -0.016811
v -0.458442 1.445969 0.016778
v -0.292962 1.445969 -0.016811
v -0.292962 1.445969 0.016778
v -0.356672 1.610067 -0.016811
v -0.356687 1.610067 0.016778
v -0.292962 1.610067 -0.016811
v -0.292962 1.610067 0.016778
v -0.241608 0.634247 -0.016802
v -0.241608 0.634247 0.016787
v -0.337196 0.634247 -0.016802
v -0.337212 0.634247 0.016787
v 0.000000 0.781100 -0.012811
v 0.000000 0.781100 0.012811
v -0.060768 0.781100 0.012811
v -0.060767 0.781100 -0.012811
v 0.000000 0.910647 -0.012811
v 0.000000 0.910647 0.012811
v -0.017553 0.910647 0.012811
v -0.017552 0.910647 -0.012811
v -0.060766 0.565008 -0.053013
v 0.000000 0.565008 -0.053013
v -0.060768 0.565008 0.053013
v 0.000000 0.565008 0.053013
v -0.173325 0.565008 0.053011
v -0.090945 0.637642 0.053011
v -0.060768 0.637642 0.053013
v -0.060766 0.637642 -0.053013
v 0.000000 0.637642 -0.053013
v 0.000000 0.637642 0.053013
v -0.090943 0.637642 -0.053014
v -0.173323 0.565007 -0.053014
vn 1.0000 -0.0000 -0.0000
vn 0.0000 0.0000 -1.0000
vn 0.0000 0.0000 1.0000
vn 0.6613 0.7501 -0.0000
vn 0.0000 -1.0000 0.0000
vn -0.0000 1.0000 -0.0000
vn 0.0000 0.0001 1.0000
vn -0.6266 0.7793 0.0000
vn 0.0000 -0.0001 -1.0000
vn -1.0000 0.0000 0.0000
vn 1.0000 0.0000 -0.0005
vn 0.8499 0.5270 -0.0004
vn 0.6266 -0.7793 -0.0003
vn -0.7022 -0.7120 0.0000
vn 0.9486 0.3164 -0.0000
vn -0.6613 0.7501 -0.0000
vn 0.6266 0.7793 0.0000
vn -1.0000 0.0000 -0.0005
vn -0.8499 0.5270 -0.0004
vn -0.6266 -0.7793 -0.0003
vn 0.7022 -0.7120 0.0000
vn -0.9486 0.3164 -0.0000
usemtl Material
s off
f 1//1 3//1 4//1 2//1
f 3//2 1//2 47//2 49//2
f 2//3 4//3 50//3 48//3
f 7//4 8//4 5//4 6//4
f 1//5 2//5 48//5 47//5
f 10//2 56//2 79//2 32//2
f 10//6 5//6 41//6 40//6
f 3//5 49//5 88//5 35//5
f 15//7 12//7 16//7 18//7
f 8//5 3//5 35//5 42//5
f 9//6 55//6 96//6 39//6
f 4//5 3//5 8//5 7//5
f 10//6 9//6 6//6 5//6
f 14//2 17//2 21//2 19//2
f 12//3 15//3 28//3 30//3
f 13//8 15//8 18//8 17//8
f 11//9 13//9 17//9 14//9
f 19//2 21//2 25//2 23//2
f 17//10 18//10 22//10 21//10
f 18//3 16//3 20//3 22//3
f 16//11 14//11 19//11 20//11
f 23//6 25//6 26//6 24//6
f 20//12 19//12 23//12 24//12
f 22//3 20//3 24//3 26//3
f 21//10 22//10 26//10 25//10
f 14//13 16//13 12//13 11//13
f 27//5 29//5 30//5 28//5
f 13//2 11//2 29//2 27//2
f 15//14 13//14 27//14 28//14
f 11//11 12//11 30//11 29//11
f 32//2 79//2 83//2 34//2
f 55//3 9//3 31//3 80//3
f 9//1 10//1 32//1 31//1
f 33//6 34//6 83//6 84//6
f 31//15 32//15 34//15 33//15
f 80//3 31//3 33//3 84//3
f 90//3 36//3 39//3 96//3
f 39//3 36//3 37//3 38//3
f 35//2 88//2 95//2 40//2
f 35//2 40//2 41//2 42//2
f 7//4 6//4 38//4 37//4
f 50//5 4//5 36//5 90//5
f 56//6 10//6 40//6 95//6
f 6//6 9//6 39//6 38//6
f 5//4 8//4 42//4 41//4
f 4//5 7//5 37//5 36//5
f 43//10 44//10 46//10 45//10
f 45//2 49//2 47//2 43//2
f 44//3 48//3 50//3 46//3
f 53//16 52//16 51//16 54//16
f 43//5 47//5 48//5 44//5
f 58//2 82//2 79//2 56//2
f 58//6 94//6 97//6 51//6
f 45//5 87//5 88//5 49//5
f 63//7 66//7 64//7 60//7
f 54//5 98//5 87//5 45//5
f 57//6 93//6 96//6 55//6
f 46//5 53//5 54//5 45//5
f 58//6 51//6 52//6 57//6
f 62//2 67//2 69//2 65//2
f 60//3 78//3 76//3 63//3
f 61//17 65//17 66//17 63//17
f 59//9 62//9 65//9 61//9
f 67//2 71//2 73//2 69//2
f 65//1 69//1 70//1 66//1
f 66//3 70//3 68//3 64//3
f 64//18 68//18 67//18 62//18
f 71//6 72//6 74//6 73//6
f 68//19 72//19 71//19 67//19
f 70//3 74//3 72//3 68//3
f 69//1 73//1 74//1 70//1
f 62//20 59//20 60//20 64//20
f 75//5 76//5 78//5 77//5
f 61//2 75//2 77//2 59//2
f 63//21 76//21 75//21 61//21
f 59//18 77//18 78//18 60//18
f 82//2 86//2 83//2 79//2
f 55//3 80//3 81//3 57//3
f 57//10 81//10 82//10 58//10
f 85//6 84//6 83//6 86//6
f 81//22 85//22 86//22 82//22
f 80//3 84//3 85//3 81//3
f 90//3 96//3 93//3 89//3
f 93//3 92//3 91//3 89//3
f 87//2 94//2 95//2 88//2
f 87//2 98//2 97//2 94//2
f 53//16 91//16 92//16 52//16
f 50//5 90//5 89//5 46//5
f 56//6 95//6 94//6 58//6
f 52//6 92//6 93//6 57//6
f 51//16 97//16 98//16 54//16
f 46//5 89//5 91//5 53//5
